<mxfile host="app.diagrams.net" modified="2024-05-12T08:19:34.576Z" agent="Mozilla/5.0 (Windows NT 10.0; Win64; x64) AppleWebKit/537.36 (KHTML, like Gecko) Chrome/117.0.0.0 Safari/537.36" etag="3E92RlxaEryvuGedvDlt" version="24.4.0" type="github">
  <diagram id="C5RBs43oDa-KdzZeNtuy" name="Page-1">
    <mxGraphModel dx="1340" dy="863" grid="1" gridSize="10" guides="1" tooltips="1" connect="1" arrows="1" fold="1" page="1" pageScale="1" pageWidth="827" pageHeight="1169" math="0" shadow="0">
      <root>
        <mxCell id="WIyWlLk6GJQsqaUBKTNV-0" />
        <mxCell id="WIyWlLk6GJQsqaUBKTNV-1" parent="WIyWlLk6GJQsqaUBKTNV-0" />
        <mxCell id="r547fRGEFtr_RkTkPwBB-2" style="edgeStyle=orthogonalEdgeStyle;rounded=0;orthogonalLoop=1;jettySize=auto;html=1;exitX=0.5;exitY=1;exitDx=0;exitDy=0;entryX=0.5;entryY=0;entryDx=0;entryDy=0;" edge="1" parent="WIyWlLk6GJQsqaUBKTNV-1" source="WIyWlLk6GJQsqaUBKTNV-3">
          <mxGeometry relative="1" as="geometry">
            <mxPoint x="474.0000000000002" y="80" as="targetPoint" />
          </mxGeometry>
        </mxCell>
        <mxCell id="WIyWlLk6GJQsqaUBKTNV-3" value="MainCode" style="rounded=1;whiteSpace=wrap;html=1;fontSize=12;glass=0;strokeWidth=1;shadow=0;" parent="WIyWlLk6GJQsqaUBKTNV-1" vertex="1">
          <mxGeometry x="414" y="10" width="120" height="40" as="geometry" />
        </mxCell>
        <mxCell id="r547fRGEFtr_RkTkPwBB-5" style="edgeStyle=orthogonalEdgeStyle;rounded=0;orthogonalLoop=1;jettySize=auto;html=1;exitX=0.5;exitY=1;exitDx=0;exitDy=0;entryX=0.5;entryY=0;entryDx=0;entryDy=0;" edge="1" parent="WIyWlLk6GJQsqaUBKTNV-1" source="r547fRGEFtr_RkTkPwBB-3" target="r547fRGEFtr_RkTkPwBB-4">
          <mxGeometry relative="1" as="geometry" />
        </mxCell>
        <mxCell id="r547fRGEFtr_RkTkPwBB-3" value="void setup()" style="shape=process;whiteSpace=wrap;html=1;backgroundOutline=1;" vertex="1" parent="WIyWlLk6GJQsqaUBKTNV-1">
          <mxGeometry x="431" y="80" width="86" height="40" as="geometry" />
        </mxCell>
        <mxCell id="r547fRGEFtr_RkTkPwBB-4" value="initialise LCD" style="rounded=0;whiteSpace=wrap;html=1;" vertex="1" parent="WIyWlLk6GJQsqaUBKTNV-1">
          <mxGeometry x="417" y="140" width="114" height="42" as="geometry" />
        </mxCell>
        <mxCell id="r547fRGEFtr_RkTkPwBB-6" value="set PinModes" style="rounded=0;whiteSpace=wrap;html=1;" vertex="1" parent="WIyWlLk6GJQsqaUBKTNV-1">
          <mxGeometry x="417" y="182" width="114" height="42" as="geometry" />
        </mxCell>
        <mxCell id="r547fRGEFtr_RkTkPwBB-10" style="edgeStyle=orthogonalEdgeStyle;rounded=0;orthogonalLoop=1;jettySize=auto;html=1;exitX=0.5;exitY=1;exitDx=0;exitDy=0;entryX=0.5;entryY=0;entryDx=0;entryDy=0;" edge="1" parent="WIyWlLk6GJQsqaUBKTNV-1" source="r547fRGEFtr_RkTkPwBB-7" target="r547fRGEFtr_RkTkPwBB-9">
          <mxGeometry relative="1" as="geometry" />
        </mxCell>
        <mxCell id="r547fRGEFtr_RkTkPwBB-7" value="initialise Servo" style="rounded=0;whiteSpace=wrap;html=1;" vertex="1" parent="WIyWlLk6GJQsqaUBKTNV-1">
          <mxGeometry x="417" y="224" width="114" height="42" as="geometry" />
        </mxCell>
        <mxCell id="r547fRGEFtr_RkTkPwBB-12" style="edgeStyle=orthogonalEdgeStyle;rounded=0;orthogonalLoop=1;jettySize=auto;html=1;exitX=0.5;exitY=1;exitDx=0;exitDy=0;" edge="1" parent="WIyWlLk6GJQsqaUBKTNV-1" source="r547fRGEFtr_RkTkPwBB-9" target="r547fRGEFtr_RkTkPwBB-11">
          <mxGeometry relative="1" as="geometry" />
        </mxCell>
        <mxCell id="r547fRGEFtr_RkTkPwBB-9" value="void loop()" style="shape=process;whiteSpace=wrap;html=1;backgroundOutline=1;" vertex="1" parent="WIyWlLk6GJQsqaUBKTNV-1">
          <mxGeometry x="431" y="280" width="86" height="40" as="geometry" />
        </mxCell>
        <mxCell id="r547fRGEFtr_RkTkPwBB-11" value="LCD const chars" style="rounded=0;whiteSpace=wrap;html=1;" vertex="1" parent="WIyWlLk6GJQsqaUBKTNV-1">
          <mxGeometry x="417" y="340" width="114" height="42" as="geometry" />
        </mxCell>
        <mxCell id="r547fRGEFtr_RkTkPwBB-15" style="edgeStyle=orthogonalEdgeStyle;rounded=0;orthogonalLoop=1;jettySize=auto;html=1;exitX=0.5;exitY=1;exitDx=0;exitDy=0;entryX=0.5;entryY=0;entryDx=0;entryDy=0;" edge="1" parent="WIyWlLk6GJQsqaUBKTNV-1" source="r547fRGEFtr_RkTkPwBB-13" target="r547fRGEFtr_RkTkPwBB-14">
          <mxGeometry relative="1" as="geometry" />
        </mxCell>
        <mxCell id="r547fRGEFtr_RkTkPwBB-13" value="Sensor Data Collection" style="rounded=0;whiteSpace=wrap;html=1;" vertex="1" parent="WIyWlLk6GJQsqaUBKTNV-1">
          <mxGeometry x="417" y="382" width="114" height="42" as="geometry" />
        </mxCell>
        <mxCell id="r547fRGEFtr_RkTkPwBB-16" style="edgeStyle=orthogonalEdgeStyle;rounded=0;orthogonalLoop=1;jettySize=auto;html=1;exitX=0;exitY=0.5;exitDx=0;exitDy=0;" edge="1" parent="WIyWlLk6GJQsqaUBKTNV-1" source="r547fRGEFtr_RkTkPwBB-14">
          <mxGeometry relative="1" as="geometry">
            <mxPoint x="130" y="475.21739130434787" as="targetPoint" />
          </mxGeometry>
        </mxCell>
        <mxCell id="r547fRGEFtr_RkTkPwBB-14" value="vibration isDetected?" style="rhombus;whiteSpace=wrap;html=1;" vertex="1" parent="WIyWlLk6GJQsqaUBKTNV-1">
          <mxGeometry x="399" y="440" width="150" height="70" as="geometry" />
        </mxCell>
      </root>
    </mxGraphModel>
  </diagram>
</mxfile>
